# Blender 3.5.0
# www.blender.org
mtllib pot_big.mtl
o pot_big
v 31.707159 99.639160 -0.000008
v 22.420359 99.639160 -22.420366
v 35.212749 91.080399 -0.000007
v 24.899170 91.080399 -24.899178
v 25.705669 86.715836 -0.000007
v 18.176659 86.715836 -18.176664
v 27.457859 81.717491 -0.000005
v 19.415630 81.717491 -19.415636
v 44.488110 71.553772 -0.000005
v 31.457840 71.553772 -31.457846
v 50.905098 55.592327 -0.000004
v 35.995331 55.592323 -35.995335
v 46.713730 33.057320 -0.000002
v 33.031590 33.057316 -33.031593
v 37.349991 14.367200 -0.000001
v 26.410429 14.367198 -26.410431
v 26.907969 0.000000 0.000000
v 19.026810 -0.000001 -19.026810
v -19.026810 -0.000001 -19.026810
v -0.000001 -0.000002 -26.907969
v -26.410429 14.367198 -26.410431
v 0.000000 14.367197 -37.349979
v -33.031590 33.057316 -33.031593
v 0.000000 33.057316 -46.713722
v -35.995331 55.592323 -35.995335
v 0.000000 55.592323 -50.905094
v -31.457840 71.553772 -31.457846
v 0.000000 71.553772 -44.488102
v -19.415630 81.717491 -19.415636
v 0.000001 81.717491 -27.457855
v -18.176659 86.715836 -18.176664
v 0.000000 86.715836 -25.705675
v -24.899170 91.080399 -24.899178
v -0.000001 91.080399 -35.212746
v -22.420359 99.639160 -22.420366
v -0.000001 99.639160 -31.707176
v -31.707159 99.639160 -0.000008
v -22.420359 99.639160 22.420351
v -35.212738 91.080399 -0.000007
v -24.899170 91.080399 24.899162
v -25.705669 86.715836 -0.000007
v -18.176649 86.715836 18.176653
v -27.457850 81.717491 -0.000005
v -19.415630 81.717491 19.415625
v -44.488098 71.553772 -0.000005
v -31.457840 71.553772 31.457834
v -50.905090 55.592327 -0.000004
v -35.995331 55.592331 35.995327
v -46.713718 33.057320 -0.000002
v -33.031590 33.057323 33.031586
v -37.349979 14.367200 -0.000001
v -26.410429 14.367202 26.410427
v -26.907969 0.000000 0.000000
v -19.026810 0.000001 19.026810
v 19.026810 0.000001 19.026810
v -0.000001 0.000002 26.907969
v 26.410429 14.367202 26.410427
v 0.000000 14.367203 37.349991
v 33.031601 33.057323 33.031597
v 0.000000 33.057323 46.713715
v 35.995338 55.592331 35.995335
v 0.000000 55.592331 50.905087
v 31.457840 71.553772 31.457844
v 0.000000 71.553772 44.488094
v 19.415630 81.717491 19.415625
v 0.000001 81.717491 27.457844
v 18.176659 86.715836 18.176653
v 0.000000 86.715836 25.705664
v 24.899179 91.080399 24.899162
v -0.000001 91.080399 35.212742
v 22.420359 99.639160 22.420351
v -0.000001 99.639160 31.707161
v -22.420359 99.639160 -22.420366
v -24.899170 91.080399 -24.899178
v -18.176659 86.715836 -18.176664
v -19.415630 81.717491 -19.415636
v -31.457840 71.553772 -31.457846
v -35.995331 55.592323 -35.995335
v -33.031590 33.057316 -33.031593
v -26.410429 14.367198 -26.410431
v -19.026810 -0.000001 -19.026810
v 16.833160 99.639160 16.833162
v -0.000003 99.639160 23.805681
v 16.809839 4.131930 16.809839
v -0.000004 4.131931 23.772709
v -0.000001 99.639160 -31.707176
v 22.420359 99.639160 -22.420366
v -0.000003 99.639160 -23.805696
v 16.833160 99.639160 -16.833178
v -22.420359 99.639160 -22.420366
v -16.833170 99.639160 -16.833178
v 23.805689 99.639160 -0.000009
v 31.707159 99.639160 -0.000008
v 16.833160 99.639160 16.833162
v 22.420359 99.639160 22.420351
v -0.000003 99.639160 23.805681
v -0.000001 99.639160 31.707161
v -16.833170 99.639160 16.833162
v -22.420359 99.639160 22.420351
v -23.805689 99.639160 -0.000009
v -31.707159 99.639160 -0.000008
v -16.833170 99.639160 -16.833178
v -22.420359 99.639160 -22.420366
v -0.000003 99.639160 23.805681
v -16.833170 99.639160 16.833162
v -0.000004 4.131931 23.772709
v -16.809849 4.131929 16.809839
v -16.833170 99.639160 16.833162
v -23.805689 99.639160 -0.000009
v -16.809849 4.131929 16.809839
v -23.772699 4.131929 -0.000002
v -23.805689 99.639160 -0.000009
v -16.833170 99.639160 -16.833178
v -23.772699 4.131929 -0.000002
v -16.809849 4.131927 -16.809839
v -16.833170 99.639160 -16.833178
v -0.000003 99.639160 -23.805696
v -16.809849 4.131927 -16.809839
v -0.000004 4.131926 -23.772699
v -0.000003 99.639160 -23.805696
v 16.833160 99.639160 -16.833178
v -0.000004 4.131926 -23.772699
v 16.809839 4.131927 -16.809839
v 16.833160 99.639160 -16.833178
v 23.805689 99.639160 -0.000009
v 16.809839 4.131927 -16.809839
v 23.772709 4.131929 -0.000002
v 23.805689 99.639160 -0.000009
v 16.833160 99.639160 16.833162
v 23.772709 4.131929 -0.000002
v 16.809839 4.131930 16.809839
v -0.000001 4.186384 -0.000000
v -23.772699 4.131929 -0.000002
v -16.809849 4.131927 -16.809839
v -16.809849 4.131927 -16.809839
v -0.000004 4.131926 -23.772699
v -0.000004 4.131926 -23.772699
v 16.809839 4.131927 -16.809839
v -16.809849 4.131929 16.809839
v -23.772699 4.131929 -0.000002
v -0.000004 4.131931 23.772709
v -16.809849 4.131929 16.809839
v 16.809839 4.131930 16.809839
v -0.000004 4.131931 23.772709
v 23.772709 4.131929 -0.000002
v 16.809839 4.131930 16.809839
v 16.809839 4.131927 -16.809839
v 23.772709 4.131929 -0.000002
vn 0.8641 0.3539 0.3579
vn 0.3579 0.3539 -0.8641
vn 0.8789 0.3081 -0.3640
vn 0.8790 0.3081 -0.3640
vn 0.5013 0.8400 0.2076
vn 0.2077 0.8400 -0.5013
vn 0.8661 0.3482 0.3587
vn 0.3588 0.3482 -0.8661
vn 0.9105 -0.1693 0.3772
vn 0.3772 -0.1693 -0.9105
vn 0.8384 -0.4201 0.3473
vn 0.3472 -0.4201 -0.8384
vn 0.7670 -0.5574 0.3177
vn 0.3177 -0.5575 -0.7670
vn 0.7670 -0.5575 0.3177
vn -0.3177 -0.5575 -0.7670
vn -0.3472 -0.4201 -0.8384
vn 0.3473 -0.4201 -0.8384
vn -0.3771 -0.1693 -0.9105
vn -0.3587 0.3482 -0.8661
vn 0.3587 0.3482 -0.8661
vn -0.2077 0.8400 -0.5013
vn -0.3640 0.3081 -0.8790
vn 0.3641 0.3081 -0.8789
vn -0.3579 0.3539 -0.8641
vn -0.8641 0.3539 -0.3579
vn -0.8641 0.3539 0.3579
vn -0.8789 0.3082 -0.3640
vn -0.8790 0.3081 0.3640
vn -0.5013 0.8400 -0.2076
vn -0.5013 0.8400 0.2077
vn -0.8661 0.3482 -0.3587
vn -0.8661 0.3482 0.3588
vn -0.9105 -0.1693 -0.3772
vn -0.9105 -0.1693 0.3772
vn -0.8384 -0.4201 -0.3473
vn -0.8384 -0.4201 0.3472
vn -0.7670 -0.5574 -0.3177
vn -0.7670 -0.5574 0.3177
vn -0.7670 -0.5575 -0.3177
vn -0.7670 -0.5575 0.3177
vn 0.3177 -0.5575 0.7670
vn -0.3177 -0.5575 0.7670
vn 0.3177 -0.5574 0.7670
vn 0.3472 -0.4201 0.8384
vn -0.3473 -0.4201 0.8384
vn 0.3771 -0.1693 0.9105
vn -0.3772 -0.1693 0.9105
vn 0.3588 0.3482 0.8661
vn -0.3587 0.3482 0.8661
vn 0.2077 0.8400 0.5013
vn -0.2076 0.8400 0.5013
vn 0.3640 0.3081 0.8789
vn -0.3641 0.3081 0.8789
vn 0.3579 0.3539 0.8641
vn -0.3579 0.3539 0.8641
vn -0.3640 0.3081 -0.8789
vn -0.2076 0.8400 -0.5013
vn -0.3772 -0.1693 -0.9105
vn -0.3473 -0.4201 -0.8384
vn -0.3177 -0.5574 -0.7670
vn 0.0009 1.0000 0.0023
vn 0.3827 0.0002 -0.9239
vn -0.9239 0.0003 -0.3827
vn 0.0006 1.0000 0.0017
vn -0.0000 1.0000 -0.0000
vn -0.0009 1.0000 0.0023
vn 0.9239 0.0002 -0.3827
vn 0.3827 0.0003 -0.9239
vn -0.0008 1.0000 0.0016
vn -0.0023 1.0000 0.0009
vn 0.9239 0.0002 0.3827
vn 0.9239 0.0003 -0.3827
vn -0.0017 1.0000 0.0006
vn -0.0023 1.0000 -0.0009
vn 0.3827 0.0002 0.9239
vn 0.9239 0.0003 0.3827
vn -0.0016 1.0000 -0.0008
vn -0.0009 1.0000 -0.0023
vn -0.3827 0.0002 0.9239
vn 0.3827 0.0003 0.9239
vn -0.0006 1.0000 -0.0017
vn 0.0009 1.0000 -0.0023
vn -0.9239 0.0002 0.3827
vn -0.3827 0.0003 0.9239
vn 0.0011 1.0000 -0.0022
vn 0.0010 1.0000 -0.0023
vn -0.9239 0.0002 -0.3827
vn -0.9239 0.0003 0.3827
vn 0.0017 1.0000 -0.0006
vn 0.0023 1.0000 0.0009
vn 0.0016 1.0000 0.0008
vn -0.0011 1.0000 -0.0021
vn -0.0023 1.0000 -0.0007
vn 0.0009 1.0000 -0.0022
vn -0.0021 1.0000 0.0011
vn -0.0008 1.0000 0.0023
vn 0.0010 1.0000 0.0022
vn 0.0023 1.0000 0.0007
vn 0.0011 1.0000 -0.0021
vt 1.765625 0.898438
vt 2.765625 0.898438
vt 1.765625 0.824219
vt 2.765625 0.824219
vt 1.765625 0.785156
vt 2.765625 0.785156
vt 1.765625 0.738281
vt 2.765625 0.738281
vt 1.765625 0.648438
vt 2.765625 0.648438
vt 1.765625 0.507812
vt 2.765625 0.507812
vt 1.765625 0.304688
vt 2.765625 0.304688
vt 1.765625 0.140625
vt 2.765625 0.140625
vt 1.765625 0.011719
vt 2.765625 0.011719
vt 4.765625 0.011719
vt 3.765625 0.011719
vt 4.765625 0.140625
vt 3.765625 0.140625
vt 4.765625 0.304688
vt 3.765625 0.304688
vt 4.765625 0.507812
vt 3.765625 0.507812
vt 4.765625 0.648438
vt 3.765625 0.648438
vt 4.765625 0.738281
vt 3.765625 0.738281
vt 4.765625 0.785156
vt 3.765625 0.785156
vt 4.765625 0.824219
vt 3.765625 0.824219
vt 4.765625 0.898438
vt 3.765625 0.898438
vt -2.230469 0.898438
vt -1.230469 0.898438
vt -2.230469 0.824219
vt -1.230469 0.824219
vt -2.230469 0.785156
vt -1.230469 0.785156
vt -2.230469 0.738281
vt -1.230469 0.738281
vt -2.230469 0.648438
vt -1.230469 0.648438
vt -2.230469 0.507812
vt -1.230469 0.507812
vt -2.230469 0.304688
vt -1.230469 0.304688
vt -2.230469 0.140625
vt -1.230469 0.140625
vt -2.230469 0.011719
vt -1.230469 0.011719
vt 0.765625 0.011719
vt -0.230469 0.011719
vt 0.765625 0.140625
vt -0.230469 0.140625
vt 0.765625 0.304688
vt -0.230469 0.304688
vt 0.765625 0.507812
vt -0.230469 0.507812
vt 0.765625 0.648438
vt -0.230469 0.648438
vt 0.765625 0.738281
vt -0.230469 0.738281
vt 0.765625 0.785156
vt -0.230469 0.785156
vt 0.765625 0.824219
vt -0.230469 0.824219
vt 0.765625 0.898438
vt -0.230469 0.898438
vt -3.230469 0.898438
vt -3.230469 0.824219
vt -3.230469 0.785156
vt -3.230469 0.738281
vt -3.230469 0.648438
vt -3.230469 0.507812
vt -3.230469 0.304688
vt -3.230469 0.140625
vt -3.230469 0.011719
vt 0.015625 -0.054688
vt 0.015625 -0.023438
vt 0.980469 -0.054688
vt 0.980469 -0.023438
vt 3.765625 0.898438
vt 2.765625 0.898438
vt 3.765625 0.898438
vt 2.765625 0.898438
vt 4.765625 0.898438
vt 4.765625 0.898438
vt 1.765625 0.898438
vt 1.765625 0.898438
vt 0.765625 0.898438
vt 0.765625 0.898438
vt -0.230469 0.898438
vt -0.230469 0.898438
vt -1.230469 0.898438
vt -1.230469 0.898438
vt -2.230469 0.898438
vt -2.230469 0.898438
vt -3.230469 0.898438
vt -3.230469 0.898438
vt 0.015625 -0.054688
vt 0.015625 -0.023438
vt 0.980469 -0.054688
vt 0.980469 -0.023438
vt 0.015625 -0.054688
vt 0.015625 -0.023438
vt 0.980469 -0.054688
vt 0.980469 -0.023438
vt 0.015625 -0.054688
vt 0.015625 -0.023438
vt 0.980469 -0.054688
vt 0.980469 -0.023438
vt 0.015625 -0.054688
vt 0.015625 -0.023438
vt 0.980469 -0.054688
vt 0.980469 -0.023438
vt 0.015625 -0.054688
vt 0.015625 -0.023438
vt 0.980469 -0.054688
vt 0.980469 -0.023438
vt 0.015625 -0.054688
vt 0.015625 -0.023438
vt 0.980469 -0.054688
vt 0.980469 -0.023438
vt 0.015625 -0.054688
vt 0.015625 -0.023438
vt 0.980469 -0.054688
vt 0.980469 -0.023438
vt 0.898438 0.976562
vt 0.898438 0.953125
vt 0.597656 0.976562
vt 0.898438 0.953125
vt 0.597656 0.976562
vt 0.898438 0.953125
vt 0.597656 0.976562
vt 0.898438 0.953125
vt 0.597656 0.976562
vt 0.898438 0.953125
vt 0.597656 0.976562
vt 0.898438 0.953125
vt 0.597656 0.976562
vt 0.898438 0.953125
vt 0.597656 0.976562
vt 0.898438 0.953125
vt 0.597656 0.976562
s 1
usemtl Obm_ootsubo_v.001
f 3/3/1 2/2/2 1/1/1
f 3/3/1 4/4/2 2/2/2
f 5/5/3 4/4/2 3/3/1
f 5/5/3 6/6/4 4/4/2
f 7/7/5 6/6/4 5/5/3
f 7/7/5 8/8/6 6/6/4
f 9/9/7 8/8/6 7/7/5
f 9/9/7 10/10/8 8/8/6
f 11/11/9 10/10/8 9/9/7
f 11/11/9 12/12/10 10/10/8
f 13/13/11 12/12/10 11/11/9
f 13/13/11 14/14/12 12/12/10
f 15/15/13 14/14/12 13/13/11
f 15/15/13 16/16/14 14/14/12
f 17/17/15 16/16/14 15/15/13
f 17/17/15 18/18/14 16/16/14
f 19/19/16 18/18/14 17/17/15
f 19/19/16 20/20/14 18/18/14
f 21/21/16 20/20/14 19/19/16
f 21/21/16 22/22/14 20/20/14
f 23/23/17 22/22/14 21/21/16
f 23/23/17 24/24/18 22/22/14
f 25/25/19 24/24/18 23/23/17
f 25/25/19 26/26/10 24/24/18
f 27/27/20 26/26/10 25/25/19
f 27/27/20 28/28/21 26/26/10
f 29/29/22 28/28/21 27/27/20
f 29/29/22 30/30/6 28/28/21
f 31/31/23 30/30/6 29/29/22
f 31/31/23 32/32/24 30/30/6
f 33/33/25 32/32/24 31/31/23
f 33/33/25 34/34/2 32/32/24
f 35/35/25 34/34/2 33/33/25
f 35/35/25 36/36/2 34/34/2
f 39/39/26 38/38/27 37/37/26
f 39/39/26 40/40/27 38/38/27
f 41/41/28 40/40/27 39/39/26
f 41/41/28 42/42/29 40/40/27
f 43/43/30 42/42/29 41/41/28
f 43/43/30 44/44/31 42/42/29
f 45/45/32 44/44/31 43/43/30
f 45/45/32 46/46/33 44/44/31
f 47/47/34 46/46/33 45/45/32
f 47/47/34 48/48/35 46/46/33
f 49/49/36 48/48/35 47/47/34
f 49/49/36 50/50/37 48/48/35
f 51/51/38 50/50/37 49/49/36
f 51/51/38 52/52/39 50/50/37
f 53/53/40 52/52/39 51/51/38
f 53/53/40 54/54/41 52/52/39
f 55/55/42 54/54/41 53/53/40
f 55/55/42 56/56/43 54/54/41
f 57/57/44 56/56/43 55/55/42
f 57/57/44 58/58/43 56/56/43
f 59/59/45 58/58/43 57/57/44
f 59/59/45 60/60/46 58/58/43
f 61/61/47 60/60/46 59/59/45
f 61/61/47 62/62/48 60/60/46
f 63/63/49 62/62/48 61/61/47
f 63/63/49 64/64/50 62/62/48
f 65/65/51 64/64/50 63/63/49
f 65/65/51 66/66/52 64/64/50
f 67/67/53 66/66/52 65/65/51
f 67/67/53 68/68/54 66/66/52
f 69/69/55 68/68/54 67/67/53
f 69/69/55 70/70/56 68/68/54
f 71/71/55 70/70/56 69/69/55
f 71/71/55 72/72/56 70/70/56
f 69/69/55 1/1/1 71/71/55
f 69/69/55 3/3/1 1/1/1
f 67/67/53 3/3/1 69/69/55
f 67/67/53 5/5/3 3/3/1
f 65/65/51 5/5/3 67/67/53
f 65/65/51 7/7/5 5/5/3
f 63/63/49 7/7/5 65/65/51
f 63/63/49 9/9/7 7/7/5
f 61/61/47 9/9/7 63/63/49
f 61/61/47 11/11/9 9/9/7
f 59/59/45 11/11/9 61/61/47
f 59/59/45 13/13/11 11/11/9
f 57/57/44 13/13/11 59/59/45
f 57/57/44 15/15/13 13/13/11
f 55/55/42 15/15/13 57/57/44
f 55/55/42 17/17/15 15/15/13
f 53/53/40 17/17/15 55/55/42
f 53/53/40 19/19/16 17/17/15
s 0
f 22/22/14 18/18/14 20/20/14
f 22/22/14 16/16/14 18/18/14
s 1
f 24/24/18 16/16/14 22/22/14
f 24/24/18 14/14/12 16/16/14
f 26/26/10 14/14/12 24/24/18
f 26/26/10 12/12/10 14/14/12
f 28/28/21 12/12/10 26/26/10
f 28/28/21 10/10/8 12/12/10
f 30/30/6 10/10/8 28/28/21
f 30/30/6 8/8/6 10/10/8
f 32/32/24 8/8/6 30/30/6
f 32/32/24 6/6/4 8/8/6
f 34/34/2 6/6/4 32/32/24
f 34/34/2 4/4/2 6/6/4
s 0
f 36/36/2 4/4/2 34/34/2
f 36/36/2 2/2/2 4/4/2
s 1
f 40/40/27 72/72/56 38/38/27
f 40/40/27 70/70/56 72/72/56
f 42/42/29 70/70/56 40/40/27
f 42/42/29 68/68/54 70/70/56
f 44/44/31 68/68/54 42/42/29
f 44/44/31 66/66/52 68/68/54
f 46/46/33 66/66/52 44/44/31
f 46/46/33 64/64/50 66/66/52
f 48/48/35 64/64/50 46/46/33
f 48/48/35 62/62/48 64/64/50
f 50/50/37 62/62/48 48/48/35
f 50/50/37 60/60/46 62/62/48
f 52/52/39 60/60/46 50/50/37
f 52/52/39 58/58/43 60/60/46
f 54/54/41 58/58/43 52/52/39
f 54/54/41 56/56/43 58/58/43
f 74/74/25 37/37/26 73/73/25
f 74/74/25 39/39/26 37/37/26
f 75/75/57 39/39/26 74/74/25
f 75/75/57 41/41/28 39/39/26
f 76/76/58 41/41/28 75/75/57
f 76/76/58 43/43/30 41/41/28
f 77/77/20 43/43/30 76/76/58
f 77/77/20 45/45/32 43/43/30
f 78/78/59 45/45/32 77/77/20
f 78/78/59 47/47/34 45/45/32
f 79/79/60 47/47/34 78/78/59
f 79/79/60 49/49/36 47/47/34
f 80/80/61 49/49/36 79/79/60
f 80/80/61 51/51/38 49/49/36
f 81/81/16 51/51/38 80/80/61
f 81/81/16 53/53/40 51/51/38
f 84/84/62 83/83/63 82/82/64
f 84/84/62 85/85/65 83/83/63
s 0
f 88/88/66 87/87/66 86/86/66
f 88/88/66 89/89/66 87/87/66
f 91/91/66 86/86/66 90/90/66
f 91/91/66 88/88/66 86/86/66
f 93/93/66 89/89/66 92/92/66
f 93/93/66 87/87/66 89/89/66
f 95/95/66 92/92/66 94/94/66
f 95/95/66 93/93/66 92/92/66
f 97/97/66 94/94/66 96/96/66
f 97/97/66 95/95/66 94/94/66
f 99/99/66 96/96/66 98/98/66
f 99/99/66 97/97/66 96/96/66
f 101/101/66 98/98/66 100/100/66
f 101/101/66 99/99/66 98/98/66
f 103/103/66 100/100/66 102/102/66
f 103/103/66 101/101/66 100/100/66
s 1
f 106/106/67 105/105/68 104/104/69
f 106/106/67 107/107/70 105/105/68
f 110/110/71 109/109/72 108/108/73
f 110/110/71 111/111/74 109/109/72
f 114/114/75 113/113/76 112/112/77
f 114/114/75 115/115/78 113/113/76
f 118/118/79 117/117/80 116/116/81
f 118/118/79 119/119/82 117/117/80
f 122/122/83 121/121/84 120/120/85
f 122/122/83 123/123/86 121/121/84
f 126/126/87 125/125/88 124/124/89
f 126/126/87 127/127/90 125/125/88
f 130/130/91 129/129/64 128/128/64
f 130/130/91 131/131/92 129/129/64
s 0
f 134/134/93 133/133/75 132/132/83
f 136/136/83 135/135/79 132/132/83
f 138/138/83 137/137/83 132/132/83
f 140/140/94 139/139/71 132/132/95
f 142/142/96 141/141/67 132/132/95
s 1
f 144/144/97 143/143/62 132/132/95
s 0
f 146/146/98 145/145/91 132/132/95
f 148/148/99 147/147/100 132/132/95
