# Blender 3.5.0
# www.blender.org
mtllib assets/windwaker/skull/skull.mtl
o skull
v 1.899794 25.132967 20.800903
v -12.737894 22.425863 18.818762
v -10.973313 32.059410 10.214811
v -25.475792 15.604556 12.819697
v -18.505856 26.868706 -1.651808
v -24.380789 3.638045 3.191963
v -18.505856 19.909193 -11.131938
v -23.043543 0.973088 -13.546745
v -6.809870 24.027502 -21.749802
v 0.000000 2.867963 -29.364353
v 6.809870 24.027502 -21.749802
v 21.923059 -1.089049 -17.986803
v 18.505856 22.246370 -11.080666
v 24.780581 1.267958 -0.174824
v 17.263994 22.540821 -1.746757
v 20.804211 17.097319 14.279074
v 8.225182 31.597330 10.121284
v 12.737894 22.425863 18.818762
v 13.349946 -15.914253 19.977566
v 7.349994 -16.435122 25.418324
v 12.469956 -7.501911 19.986050
v 4.761355 -6.526339 24.279045
v 7.669476 -1.930370 22.166838
v 3.539972 -5.623375 24.522066
v 5.174330 1.466538 21.746489
v 0.000000 3.284138 23.768934
v 6.280862 5.420398 23.441233
v 1.193795 15.262655 27.519070
v 12.913474 10.168260 23.636106
v 12.737894 22.425863 18.818762
v 20.804211 17.097319 14.279074
v 1.899794 25.132967 20.800903
v -8.053143 15.517030 26.622160
v -12.737894 22.425863 18.818762
v -14.108746 15.133663 22.890667
v -25.475792 15.604556 12.819697
v -15.491346 9.200805 20.183409
v -22.257978 4.224081 15.280879
v -18.603243 0.984847 19.316256
v -24.277374 -1.768311 13.188541
v -13.646086 -9.249377 21.204966
v 5.397603 -16.389591 27.379250
v -5.397603 -16.389591 27.379250
v 0.000000 -5.991267 23.948090
v -4.761355 -7.609039 22.974796
v -3.675522 -4.330959 25.257401
v -8.479218 0.771005 23.677029
v -5.243503 2.053658 23.571703
v -8.154899 8.748202 -21.860109
v -4.524311 10.530900 25.125160
v -4.761355 -7.609039 22.974796
v -5.397603 -16.389591 27.379250
v -2.679396 -18.234430 22.467077
v 5.397603 -16.389591 27.379250
v 2.679396 -18.234430 22.467077
v 4.761355 -6.526339 24.279045
v 4.427596 -8.952595 17.995461
v 5.846672 -17.145891 21.901005
v -23.043543 0.973088 -13.546745
v -24.380789 3.638045 3.191963
v -16.129446 -9.082952 -7.506701
v -20.948185 3.527124 10.069970
v -5.112779 -12.298018 0.045317
v -24.277374 -1.768311 13.188541
v -12.731756 -9.182820 19.329826
v 12.296044 -1.410457 21.574787
v 7.427508 4.178613 -11.414470
v 15.806394 2.226192 20.596994
v 15.924377 7.299632 21.287561
v 22.465332 -5.503304 12.979668
v 19.838762 3.116949 15.256592
v 11.552211 -8.049056 19.322353
v 22.465332 -5.503304 12.979668
v 7.057586 -12.298018 0.045317
v 21.965075 2.467950 8.289819
v 16.129446 -9.082952 -7.506701
v 24.780581 1.267958 -0.174824
v 21.923059 -1.089049 -17.986803
v -12.908675 1.254302 22.355803
v 0.000000 29.078753 -4.837731
v 1.404364 33.095345 10.115171
v 0.000000 29.343960 -14.016162
v 0.000000 2.867963 -29.364353
v 0.000000 -14.585256 -17.909758
v 0.000000 -18.032965 -9.296398
v -14.692235 -16.021849 19.408072
v -16.719826 -13.437552 22.469580
v -8.820540 -17.941298 22.166870
v -8.506007 -16.165091 26.319939
v 22.465332 -5.503304 12.979668
v 11.552211 -8.049056 19.322353
v 12.469956 -7.501911 19.986050
v 11.570427 -16.751526 18.142956
v 13.349946 -15.914253 19.977566
v 7.349994 -16.435122 25.418324
v 13.349946 -15.914253 19.977566
v 11.570427 -16.751526 18.142956
v -25.475792 15.604556 12.819697
v -12.731756 -9.182820 19.329826
v -4.427596 -8.952595 17.995461
v -5.112779 -12.298018 0.045317
v 7.057586 -12.298018 0.045317
v 0.000000 -18.032965 -9.296398
v -4.427596 -8.952595 17.995461
v 20.804211 17.097319 14.279074
v 19.838762 3.116949 15.256592
v 0.000000 2.867963 -29.364353
v 0.000000 -14.585256 -17.909758
v 0.000000 -18.032965 -9.296398
v 11.552211 -8.049056 19.322353
v 4.427596 -8.952595 17.995461
v -14.692235 -16.021849 19.408072
v -16.719826 -13.437552 22.469580
v -16.719826 -13.437552 22.469580
v -8.506007 -16.165091 26.319939
v -14.692235 -16.021849 19.408072
v -8.820540 -17.941298 22.166870
v -12.731756 -9.182820 19.329826
v -4.427596 -8.952595 17.995461
v 11.570427 -16.751526 18.142956
v 11.552211 -8.049056 19.322353
v 5.846672 -17.145891 21.901005
v 4.427596 -8.952595 17.995461
v -2.679396 -18.234430 22.467077
v 2.679396 -18.234430 22.467077
v 12.469956 -7.501911 19.986050
v 12.296044 -1.410457 21.574787
vn -0.3530 0.8920 0.2825
vn -0.4217 0.5924 0.6864
vn 0.0267 0.6993 0.7143
vn -0.8883 0.1583 0.4311
vn -0.7026 0.6541 -0.2802
vn -0.9807 -0.1934 0.0290
vn -0.7143 0.6222 -0.3205
vn -0.8031 -0.2184 -0.5543
vn -0.4002 0.5512 -0.7321
vn -0.0577 -0.0954 -0.9938
vn 0.3443 0.5647 -0.7500
vn 0.7587 -0.2651 -0.5950
vn 0.7009 0.6882 -0.1871
vn 0.9911 -0.1054 0.0808
vn 0.7319 0.6790 -0.0569
vn 0.8737 0.2726 0.4030
vn 0.4589 0.8686 0.1871
vn 0.4710 0.5341 0.7021
vn 0.6682 -0.1702 0.7242
vn 0.1843 -0.3790 0.9069
vn 0.8788 -0.4696 0.0850
vn 0.2553 0.0296 0.9664
vn 0.3708 0.2914 0.8818
vn 0.1597 0.0812 0.9838
vn 0.5959 0.2000 0.7778
vn 0.0928 -0.0908 0.9915
vn 0.5025 -0.5184 0.6919
vn 0.1136 0.0311 0.9930
vn 0.4645 -0.2674 0.8442
vn -0.4415 -0.0555 0.8955
vn -0.4217 0.5924 0.6865
vn -0.3027 -0.1893 0.9341
vn -0.8883 0.1582 0.4311
vn -0.1452 0.0377 0.9887
vn -0.9061 0.0662 0.4179
vn -0.6126 0.0022 0.7904
vn -0.9219 -0.3874 0.0031
vn -0.5852 -0.0003 0.8109
vn -0.0393 0.0191 0.9990
vn -0.5512 -0.1534 0.8202
vn 0.4071 -0.2023 0.8907
vn -0.3040 -0.1625 0.9387
vn -0.0827 -0.0915 0.9924
vn -0.3140 0.3515 0.8820
vn -0.4040 0.3448 0.8473
vn -0.2368 0.4070 0.8822
vn -0.5286 -0.3427 0.7766
vn -0.4823 -0.7806 -0.3976
vn -0.5512 -0.1534 0.8201
vn -0.3040 -0.1626 0.9387
vn 0.4072 -0.2023 0.8907
vn 0.3540 -0.7110 -0.6076
vn 0.0912 -0.9061 -0.4131
vn -0.4939 -0.6278 -0.6016
vn -0.6228 -0.7815 0.0375
vn -0.9807 -0.1935 0.0290
vn -0.8032 -0.2184 -0.5543
vn -0.9204 -0.3898 -0.0284
vn -0.3457 -0.9301 0.1238
vn -0.4851 -0.5632 -0.6689
vn -0.5853 -0.0004 0.8108
vn 0.3063 0.2750 0.9113
vn -0.2933 -0.2675 0.9178
vn -0.2031 0.1343 0.9699
vn 0.4600 -0.1884 0.8677
vn 0.8035 -0.3931 0.4471
vn 0.9128 0.0746 0.4015
vn 0.3401 -0.9283 0.1506
vn 0.2860 -0.8115 -0.5095
vn 0.9252 -0.3362 0.1763
vn 0.5941 -0.8041 0.0229
vn -0.0762 0.3832 0.9205
vn 0.0544 0.9723 -0.2274
vn 0.0661 0.9806 0.1846
vn -0.0407 0.9759 -0.2143
vn -0.0405 -0.8052 -0.5916
vn -0.0578 -0.0954 -0.9938
vn 0.0046 -0.9967 0.0806
vn 0.3224 -0.7405 -0.5897
vn -0.9858 0.1380 0.0951
vn -0.4926 -0.4564 -0.7410
vn -0.0154 -0.1281 0.9916
vn 0.6682 -0.1702 0.7243
vn 0.2860 -0.8115 -0.5096
vn 0.1830 -0.4679 -0.8646
vn 0.8787 -0.4697 0.0850
vn 0.1843 -0.3789 0.9069
vn 0.1830 -0.4680 -0.8646
vn -0.3457 -0.9301 0.1237
vn -0.0262 -0.8343 -0.5508
vn -0.4851 -0.5632 -0.6690
vn 0.0046 -0.9967 0.0807
vn -0.0262 -0.8343 -0.5507
vn 0.8736 0.2726 0.4030
vn 0.2859 -0.8116 -0.5095
vn -0.9858 0.1380 0.0952
vn 0.3225 -0.7405 -0.5897
vn 0.3539 -0.7111 -0.6076
vn -0.4823 -0.7806 -0.3975
vn 0.3063 0.2750 0.9114
vn 0.6682 -0.1707 0.7241
vt 0.046875 0.824219
vt 0.050781 0.886719
vt 0.093750 0.890625
vt 0.074219 0.945312
vt 0.148438 0.925781
vt 0.121094 0.937500
vt 0.195312 0.925781
vt 0.203125 0.937500
vt 0.253906 0.878906
vt 0.312500 0.839844
vt 0.261719 0.816406
vt 0.246094 0.734375
vt 0.210938 0.757812
vt 0.082031 0.714844
vt 0.164062 0.761719
vt 0.085938 0.734375
vt 0.101562 0.800781
vt 0.058594 0.773438
vt 0.722656 0.000000
vt 0.859375 0.000000
vt 0.683594 0.234375
vt 0.855469 0.218750
vt 0.796875 0.472656
vt 0.929688 0.332031
vt 0.835938 0.492188
vt 0.992188 0.480469
vt 0.843750 0.605469
vt 0.996094 0.699219
vt 0.765625 0.707031
vt 0.722656 0.988281
vt 0.449219 0.988281
vt 0.996094 0.988281
vt 0.808594 0.687500
vt 0.722656 0.988281
vt 0.714844 0.691406
vt 0.449219 0.988281
vt 0.714844 0.582031
vt 0.484375 0.625000
vt 0.617188 0.453125
vt 0.425781 0.519531
vt 0.683594 0.234375
vt 0.890625 0.000000
vt 0.890625 0.000000
vt 0.992188 0.300781
vt 0.855469 0.218750
vt 0.929688 0.332031
vt 0.796875 0.472656
vt 0.835938 0.492188
vt 0.789062 0.578125
vt 0.843750 0.605469
vt 0.863281 0.121094
vt 0.863281 0.140625
vt 0.863281 0.085938
vt 0.867188 0.132812
vt 0.863281 0.082031
vt 0.867188 0.132812
vt 0.863281 0.062500
vt 0.867188 0.062500
vt 0.152344 0.589844
vt 0.328125 0.648438
vt 0.218750 0.394531
vt 0.398438 0.656250
vt 0.351562 0.316406
vt 0.425781 0.515625
vt 0.648438 0.222656
vt 0.710938 0.589844
vt 0.789062 0.578125
vt 0.683594 0.601562
vt 0.714844 0.691406
vt 0.425781 0.515625
vt 0.535156 0.625000
vt 0.605469 0.265625
vt 0.453125 0.480469
vt 0.359375 0.335938
vt 0.390625 0.656250
vt 0.234375 0.417969
vt 0.335938 0.648438
vt 0.125000 0.585938
vt 0.746094 0.449219
vt 0.171875 0.843750
vt 0.101562 0.832031
vt 0.218750 0.847656
vt 0.027344 0.589844
vt 0.062500 0.328125
vt 0.203125 0.179688
vt 0.863281 0.066406
vt 0.863281 0.105469
vt 0.863281 0.085938
vt 0.863281 0.132812
vt 0.480469 0.476562
vt 0.656250 0.250000
vt 0.632812 0.246094
vt 0.710938 0.000000
vt 0.691406 0.003906
vt 0.867188 0.113281
vt 0.867188 0.058594
vt 0.867188 0.039062
vt 0.453125 0.988281
vt 0.484375 0.261719
vt 0.472656 0.179688
vt 0.246094 0.187500
vt 0.253906 0.066406
vt 0.144531 0.140625
vt 0.863281 0.070312
vt 0.441406 0.976562
vt 0.500000 0.628906
vt 0.023438 0.574219
vt 0.062500 0.320312
vt 0.195312 0.179688
vt 0.503906 0.015625
vt 0.480469 0.089844
vt 0.621094 0.000000
vt 0.722656 0.003906
vt 0.722656 0.000000
vt 0.859375 0.000000
vt 0.867188 0.132812
vt 0.867188 0.144531
vt 0.867188 0.125000
vt 0.867188 0.121094
vt 0.871094 0.128906
vt 0.871094 0.125000
vt 0.871094 0.140625
vt 0.871094 0.121094
vt 0.867188 0.144531
vt 0.871094 0.144531
vt 0.636719 0.304688
vt 0.710938 0.570312
s 1
usemtl lambert3_v
f 3/3/1 2/2/2 1/1/3
f 3/3/1 4/4/4 2/2/2
f 5/5/5 4/4/4 3/3/1
f 5/5/5 6/6/6 4/4/4
f 7/7/7 6/6/6 5/5/5
f 7/7/7 8/8/8 6/6/6
f 9/9/9 8/8/8 7/7/7
f 9/9/9 10/10/10 8/8/8
f 11/11/11 10/10/10 9/9/9
f 11/11/11 12/12/12 10/10/10
f 13/13/13 12/12/12 11/11/11
f 13/13/13 14/14/14 12/12/12
f 15/15/15 14/14/14 13/13/13
f 15/15/15 16/16/16 14/14/14
f 17/17/17 16/16/16 15/15/15
f 17/17/17 18/18/18 16/16/16
f 1/1/3 18/18/18 17/17/17
f 21/21/19 20/20/20 19/19/21
f 21/21/19 22/22/22 20/20/20
f 23/23/23 22/22/22 21/21/19
f 23/23/23 24/24/24 22/22/22
f 25/25/25 24/24/24 23/23/23
f 25/25/25 26/26/26 24/24/24
f 27/27/27 26/26/26 25/25/25
f 27/27/27 28/28/28 26/26/26
f 29/29/29 28/28/28 27/27/27
f 29/29/29 30/30/18 28/28/28
f 31/31/16 30/30/18 29/29/29
f 32/32/3 28/28/28 30/30/18
f 32/32/3 33/33/30 28/28/28
f 34/34/31 33/33/30 32/32/3
f 34/34/31 35/35/32 33/33/30
f 36/36/33 35/35/32 34/34/31
f 36/36/33 37/37/34 35/35/32
f 38/38/35 37/37/34 36/36/33
f 38/38/35 39/39/36 37/37/34
f 40/40/37 39/39/36 38/38/35
f 40/40/37 41/41/38 39/39/36
f 44/44/39 43/43/40 42/42/41
f 44/44/39 45/45/42 43/43/40
f 46/46/43 45/45/42 44/44/39
f 46/46/43 47/47/44 45/45/42
f 48/48/45 47/47/44 46/46/43
f 48/48/45 49/49/46 47/47/44
f 50/50/47 49/49/46 48/48/45
f 50/50/47 33/33/30 49/49/46
f 28/28/28 33/33/30 50/50/47
f 53/53/48 52/52/49 51/51/50
f 53/53/48 54/54/51 52/52/49
f 55/55/52 54/54/51 53/53/48
f 55/55/52 56/56/22 54/54/51
f 57/57/53 56/56/22 55/55/52
f 57/57/53 58/58/54 56/56/22
f 61/61/55 60/60/56 59/59/57
f 61/61/55 62/62/58 60/60/56
f 63/63/59 62/62/58 61/61/55
f 63/63/59 64/64/37 62/62/58
f 65/65/60 64/64/37 63/63/59
f 65/65/60 41/41/61 64/64/37
f 66/66/62 23/23/23 21/21/19
f 66/66/62 67/67/63 23/23/23
f 68/68/64 67/67/63 66/66/62
f 68/68/64 69/69/65 67/67/63
f 70/70/66 69/69/65 68/68/64
f 70/70/66 71/71/67 69/69/65
f 74/74/68 73/73/66 72/72/69
f 74/74/68 75/75/70 73/73/66
f 76/76/71 75/75/70 74/74/68
f 76/76/71 77/77/14 75/75/70
f 78/78/12 77/77/14 76/76/71
f 47/47/44 41/41/38 45/45/42
f 47/47/44 79/79/72 41/41/38
f 49/49/46 79/79/72 47/47/44
f 49/49/46 37/37/34 79/79/72
f 35/35/32 37/37/34 49/49/46
f 3/3/1 80/80/73 5/5/5
f 3/3/1 81/81/74 80/80/73
f 1/1/3 81/81/74 3/3/1
f 1/1/3 17/17/17 81/81/74
f 82/82/75 13/13/13 11/11/11
f 82/82/75 80/80/73 13/13/13
f 7/7/7 80/80/73 82/82/75
f 7/7/7 5/5/5 80/80/73
f 84/84/76 59/59/57 83/83/77
f 84/84/76 61/61/55 59/59/57
f 85/85/78 61/61/55 84/84/76
f 85/85/78 63/63/59 61/61/55
f 88/88/79 87/87/80 86/86/81
f 88/88/79 89/89/82 87/87/80
f 51/51/50 89/89/82 88/88/79
f 92/92/83 91/91/84 90/90/66
f 92/92/83 93/93/85 91/91/84
f 94/94/86 93/93/85 92/92/83
f 58/58/54 95/95/87 56/56/22
f 58/58/54 96/96/21 95/95/87
f 97/97/88 96/96/21 58/58/54
f 62/62/58 98/98/4 60/60/56
f 62/62/58 38/38/35 98/98/4
f 64/64/37 38/38/35 62/62/58
f 26/26/26 44/44/39 24/24/24
f 26/26/26 46/46/43 44/44/39
f 48/48/45 46/46/43 26/26/26
f 101/101/89 100/100/90 99/99/91
f 101/101/89 102/102/68 100/100/90
f 103/103/92 102/102/68 101/101/89
f 80/80/73 15/15/15 13/13/13
f 80/80/73 17/17/17 15/15/15
f 81/81/74 17/17/17 80/80/73
f 79/79/72 39/39/36 41/41/38
f 79/79/72 37/37/34 39/39/36
f 22/22/22 44/44/39 42/42/41
f 22/22/22 24/24/24 44/44/39
f 50/50/47 26/26/26 28/28/28
f 50/50/47 48/48/45 26/26/26
f 9/9/9 82/82/75 11/11/11
f 9/9/9 7/7/7 82/82/75
f 104/104/93 51/51/50 88/88/79
f 104/104/93 53/53/48 51/51/50
f 105/105/94 75/75/70 77/77/14
f 105/105/94 106/106/67 75/75/70
f 25/25/25 67/67/63 27/27/27
f 25/25/25 23/23/23 67/67/63
f 29/29/29 67/67/63 69/69/65
f 29/29/29 27/27/27 67/67/63
f 31/31/16 69/69/65 71/71/67
f 31/31/16 29/29/29 69/69/65
f 78/78/12 108/108/76 107/107/10
f 78/78/12 76/76/71 108/108/76
f 109/109/78 76/76/71 74/74/68
f 109/109/78 108/108/76 76/76/71
f 111/111/53 102/102/68 110/110/95
f 111/111/53 100/100/90 102/102/68
f 113/113/96 65/65/60 112/112/81
f 113/113/96 41/41/61 65/65/60
f 115/115/82 41/41/38 114/114/96
f 115/115/82 45/45/42 41/41/38
f 118/118/60 117/117/97 116/116/81
f 118/118/60 119/119/90 117/117/97
f 122/122/54 121/121/69 120/120/88
f 122/122/54 123/123/53 121/121/69
f 119/119/90 125/125/98 124/124/99
f 119/119/90 123/123/53 125/125/98
f 75/75/70 106/106/67 73/73/66
f 70/70/66 127/127/100 126/126/101
f 66/66/62 70/70/66 68/68/64
f 49/49/46 33/33/30 35/35/32
